<?xml version="1.0" standalone="no"?><svg xmlns="http://www.w3.org/2000/svg" viewBox="0 0 1440 320"><path fill="#f3f4f5" fill-opacity="0.3" d="M0,192L0,192L80,192L80,96L160,96L160,96L240,96L240,288L320,288L320,192L400,192L400,224L480,224L480,224L560,224L560,96L640,96L640,224L720,224L720,256L800,256L800,96L880,96L880,224L960,224L960,32L1040,32L1040,128L1120,128L1120,32L1200,32L1200,64L1280,64L1280,64L1360,64L1360,192L1440,192L1440,0L1360,0L1360,0L1280,0L1280,0L1200,0L1200,0L1120,0L1120,0L1040,0L1040,0L960,0L960,0L880,0L880,0L800,0L800,0L720,0L720,0L640,0L640,0L560,0L560,0L480,0L480,0L400,0L400,0L320,0L320,0L240,0L240,0L160,0L160,0L80,0L80,0L0,0L0,0Z"></path></svg>