<svg width="172" height="73" viewBox="0 0 172 73" fill="none" xmlns="http://www.w3.org/2000/svg">
<g clip-path="url(#clip0_47_9569)">
<path d="M99.729 0H1.92271C0.860828 0 0 0.851026 0 1.90082V25.1876C0 26.2374 0.860828 27.0885 1.92271 27.0885H99.729C100.791 27.0885 101.652 26.2374 101.652 25.1876V1.90082C101.652 0.851026 100.791 0 99.729 0Z" fill="#F0572D"/>
<path d="M10.6937 63.503C9.40516 63.5034 8.11802 63.4178 6.84112 63.2467C5.65147 63.1044 4.48793 62.7976 3.38455 62.3354C2.41911 61.9468 1.57101 61.3192 0.921754 60.5129C0.271469 59.6393 -0.0540923 58.5706 2.36416e-06 57.4873V31.2603H6.7259V43.8398L5.43689 41.7041C6.01787 41.0455 6.74151 40.5247 7.55403 40.1806C8.39199 39.8045 9.27537 39.5366 10.1825 39.3832C10.9114 39.2449 11.6511 39.1686 12.3932 39.1554C15.8354 39.1554 18.4566 40.1806 20.2569 42.2309C22.0572 44.2812 22.9549 47.2808 22.9501 51.2295C23.0026 53.2122 22.6903 55.1878 22.0284 57.0602C21.5014 58.5131 20.6151 59.8126 19.4504 60.8404C18.3227 61.7908 17.0014 62.49 15.5761 62.8908C13.9864 63.3233 12.3424 63.5294 10.6937 63.503ZM10.6001 57.8504C11.7274 57.9206 12.8503 57.6579 13.8263 57.0957C14.6265 56.562 15.2323 55.7884 15.5545 54.8888C15.9223 53.8483 16.1003 52.7516 16.0802 51.6496C16.1274 50.2344 15.8823 48.8246 15.3601 47.5062C15.0108 46.5796 14.3696 45.7884 13.531 45.2494C12.6899 44.7726 11.7352 44.5268 10.7658 44.5375C10.0829 44.5464 9.40258 44.6228 8.73503 44.7653C8.04134 44.8989 7.37312 45.1391 6.7547 45.4772V55.679C6.74073 55.9155 6.77926 56.152 6.86758 56.3722C6.95591 56.5923 7.09189 56.7907 7.26599 56.9533C7.67839 57.2961 8.17536 57.5246 8.70622 57.6154C9.32621 57.7687 9.96128 57.8547 10.6001 57.8717V57.8504Z" fill="#191B1D"/>
<path d="M38.2022 63.503C34.2704 63.503 31.3131 62.4613 29.3304 60.3777C27.3476 58.2942 26.3587 55.2353 26.3635 51.2011C26.3635 46.8584 27.3692 43.7355 29.3808 41.8323C31.3923 39.9291 34.3328 38.9799 38.2022 38.9846C40.4637 38.9118 42.7116 39.3577 44.7697 40.2874C46.5364 41.1284 47.9629 42.5362 48.8167 44.2813C49.8036 46.4559 50.2694 48.8265 50.1778 51.2082C50.1778 55.2424 49.148 58.3013 47.0885 60.3848C45.0289 62.4684 42.0668 63.5078 38.2022 63.503ZM38.2022 58.0782C39.2096 58.1167 40.2032 57.8374 41.0395 57.2809C41.8303 56.6934 42.4248 55.8849 42.7461 54.96C43.1599 53.7502 43.3549 52.4778 43.3222 51.2011C43.372 49.8325 43.177 48.466 42.7461 47.1645C42.4343 46.2781 41.8242 45.5242 41.0179 45.0288C40.1536 44.5702 39.1826 44.3444 38.2022 44.3738C37.193 44.3346 36.1935 44.5816 35.3217 45.0857C34.5417 45.5892 33.9617 46.3437 33.6799 47.2215C33.2844 48.5129 33.1068 49.8598 33.1542 51.2082C33.1542 53.5148 33.5599 55.2377 34.3712 56.3767C34.8082 56.9629 35.3896 57.4289 36.0602 57.7305C36.7307 58.032 37.468 58.1591 38.2022 58.0996V58.0782Z" fill="#191B1D"/>
<path d="M65.3795 63.503C61.4476 63.503 58.4903 62.4613 56.5076 60.3777C54.5249 58.2942 53.5359 55.2353 53.5407 51.2011C53.5407 46.8584 54.5465 43.7355 56.558 41.8323C58.5695 39.9291 61.51 38.9799 65.3795 38.9846C67.641 38.9118 69.8889 39.3577 71.9469 40.2874C73.699 41.1331 75.112 42.5375 75.958 44.2741C76.9449 46.4488 77.4107 48.8193 77.319 51.2011C77.319 55.2353 76.2892 58.2942 74.2297 60.3777C72.1702 62.4613 69.2201 63.503 65.3795 63.503ZM65.3795 58.0782C66.3868 58.1167 67.3804 57.8374 68.2167 57.2809C69.0075 56.6934 69.602 55.8849 69.9234 54.96C70.3371 53.7502 70.5321 52.4778 70.4995 51.2011C70.5493 49.8326 70.3543 48.466 69.9234 47.1645C69.6115 46.2781 69.0015 45.5242 68.1951 45.0288C67.3309 44.5703 66.3599 44.3444 65.3795 44.3738C64.3703 44.3346 63.3708 44.5816 62.499 45.0857C61.719 45.5892 61.139 46.3437 60.8571 47.2215C60.4617 48.5129 60.2841 49.8598 60.3314 51.2082C60.3314 53.5148 60.7371 55.2377 61.5484 56.3767C61.9855 56.963 62.5669 57.429 63.2374 57.7305C63.9079 58.032 64.6453 58.1591 65.3795 58.0996V58.0782Z" fill="#191B1D"/>
<path d="M88.8985 62.8409H82.079V31.0823H88.9921L88.8985 62.8409ZM87.4583 50.1261L96.0276 39.7819H104.338L91.3757 53.3083L87.4583 50.1261ZM92.6647 47.1645L104.972 62.8267H96.2581L87.7751 51.7492L92.6647 47.1645Z" fill="#191B1D"/>
<path d="M109.177 36.6423V31.4026H116.277V36.6423H109.177ZM109.321 62.8409V40.1022H116.184L116.234 62.8409H109.321Z" fill="#191B1D"/>
<path d="M122.362 41.7397C123.106 41.3729 123.876 41.0611 124.667 40.8071C125.694 40.4674 126.739 40.1869 127.799 39.967C128.937 39.725 130.082 39.5256 131.234 39.3761C132.296 39.2281 133.366 39.152 134.439 39.1483C136.253 39.1048 138.061 39.3746 139.782 39.9457C141.168 40.4055 142.36 41.31 143.166 42.5157C144.025 43.9802 144.435 45.6593 144.347 47.3496V62.841H137.478V48.7165C137.482 48.1749 137.397 47.6363 137.226 47.1218C137.064 46.6273 136.783 46.1793 136.407 45.8169C136.03 45.4546 135.57 45.1889 135.065 45.043C134.38 44.8349 133.665 44.7364 132.948 44.7511C132.233 44.7532 131.52 44.8368 130.824 45.0003C130.269 45.1192 129.728 45.2958 129.211 45.5271V62.841H122.348L122.362 41.7397Z" fill="#191B1D"/>
<path d="M159.369 63.503C157.461 63.4477 155.591 62.9606 153.903 62.0792C152.362 61.2044 151.124 59.8891 150.353 58.3061C149.441 56.3445 149.007 54.1987 149.086 52.0412C149.021 49.882 149.347 47.7288 150.051 45.6838C150.586 44.1595 151.514 42.7999 152.744 41.7397C153.963 40.7659 155.392 40.0815 156.921 39.7392C158.702 39.3255 160.528 39.1271 162.358 39.1484C164.066 39.1154 165.768 39.3558 167.399 39.8603C168.688 40.2487 169.849 40.9714 170.761 41.9533C171.568 42.8932 171.994 44.0955 171.957 45.3278V63.1257C171.988 64.5866 171.724 66.0388 171.179 67.3972C170.67 68.6052 169.869 69.6711 168.846 70.5012C167.743 71.3714 166.475 72.0131 165.116 72.3878C163.475 72.8383 161.778 73.0541 160.075 73.0285C158.305 73.0545 156.537 72.9091 154.796 72.5942C153.636 72.3998 152.511 72.0401 151.455 71.5263V65.5534C151.916 65.7385 152.593 65.9805 153.486 66.2653C154.465 66.5865 155.466 66.8363 156.482 67.0128C157.577 67.2111 158.688 67.3112 159.801 67.3118C160.946 67.3672 162.088 67.1652 163.143 66.7209C163.856 66.3895 164.433 65.8268 164.777 65.1262C165.095 64.4086 165.253 63.6314 165.238 62.8481V59.1105L166.578 60.0645C166.089 60.7569 165.497 61.3715 164.82 61.887C164.109 62.4252 163.307 62.8349 162.451 63.0972C161.451 63.3864 160.411 63.5232 159.369 63.503ZM161.119 58.3986C161.863 58.4035 162.606 58.3199 163.33 58.1494C164.005 57.9807 164.656 57.7271 165.267 57.3948V46.8442C165.285 46.576 165.244 46.3071 165.149 46.0554C165.053 45.8038 164.904 45.5752 164.712 45.3847C164.321 45.0334 163.845 44.7882 163.33 44.6728C162.755 44.5509 162.168 44.4912 161.58 44.4948C160.395 44.4306 159.222 44.7506 158.239 45.4061C157.401 46.0461 156.789 46.9303 156.489 47.9334C156.119 49.1206 155.939 50.3577 155.956 51.5998C155.854 53.3739 156.361 55.1301 157.396 56.5832C157.824 57.1684 158.391 57.6416 159.046 57.9616C159.701 58.2817 160.425 58.439 161.155 58.4199L161.119 58.3986Z" fill="#191B1D"/>
<path d="M6.39465 21.5355V6.64929H11.1114C13.459 6.64929 15.2233 7.27578 16.4043 8.51451C17.5853 9.75325 18.1758 11.6114 18.1758 14.0817C18.1758 16.5521 17.5853 18.4102 16.4043 19.656C15.2233 20.9019 13.459 21.5355 11.1114 21.5355H6.39465ZM8.02212 20.0191H11.0034C12.9237 20.0191 14.3207 19.5445 15.1945 18.5953C16.073 17.6413 16.5051 16.1391 16.5051 14.0888C16.5051 12.0385 16.073 10.5292 15.1945 9.58239C14.3159 8.63554 12.9261 8.15855 11.0034 8.15855H8.02212V20.0191Z" fill="white"/>
<path d="M23.7062 21.5355V6.64929H25.3337V21.5355H23.7062Z" fill="white"/>
<path d="M37.8349 21.7562C36.4948 21.8026 35.1652 21.5058 33.9751 20.8948C32.9318 20.3174 32.1094 19.4169 31.6347 18.3319C30.5969 15.5938 30.5969 12.5768 31.6347 9.83874C32.1143 8.76232 32.936 7.86999 33.9751 7.2972C35.1686 6.69681 36.4966 6.40533 37.8349 6.45002C38.6528 6.4504 39.4684 6.5339 40.2689 6.6992C41.0642 6.86119 41.8375 7.11445 42.5733 7.45383V9.12683C41.8547 8.80975 41.1163 8.53866 40.3626 8.31524C39.601 8.08904 38.8101 7.97393 38.015 7.97352C36.9336 7.93281 35.8592 8.16043 34.8897 8.6356C34.0649 9.07522 33.4207 9.78508 33.0678 10.6432C32.6431 11.7419 32.4448 12.9134 32.4845 14.0889C32.4463 15.2689 32.6446 16.4448 33.0678 17.5488C33.4203 18.409 34.0644 19.1212 34.8897 19.5635C35.8592 20.0387 36.9336 20.2663 38.015 20.2256C38.6033 20.2242 39.1906 20.1789 39.7721 20.0904C40.3456 20.0005 40.9114 19.8672 41.4643 19.6917V15.4202H37.8637V13.8824H43.1206V20.5958C42.3057 20.9769 41.4508 21.2682 40.5714 21.4644C39.673 21.6615 38.7552 21.7594 37.8349 21.7562Z" fill="white"/>
<path d="M49.184 21.5355V6.64929H50.8115V21.5355H49.184Z" fill="white"/>
<path d="M60.7635 21.5355V8.17279H55.4346V6.64929H67.6766V8.17279H62.3694V21.5355H60.7635Z" fill="white"/>
<path d="M69.4913 21.5355L75.4971 6.64929H77.1246L83.1016 21.5355H81.3661L76.1812 8.14432L76.5197 8.1016L71.2844 21.5355H69.4913ZM72.1342 16.8938L72.8543 15.356H80.2139L80.3291 16.8938H72.1342Z" fill="white"/>
<path d="M87.7031 21.5355V6.64929H89.3233V19.9693H97.0646V21.5355H87.7031Z" fill="white"/>
</g>
<defs>
<clipPath id="clip0_47_9569">
<rect width="172" height="73" fill="white"/>
</clipPath>
</defs>
</svg>
