<?xml version="1.0" standalone="no"?><svg xmlns="http://www.w3.org/2000/svg" viewBox="0 0 1440 320"><path fill="#F0572D" fill-opacity="0.05" d="M0,32L18.5,32C36.9,32,74,32,111,69.3C147.7,107,185,181,222,186.7C258.5,192,295,128,332,117.3C369.2,107,406,149,443,181.3C480,213,517,235,554,224C590.8,213,628,171,665,160C701.5,149,738,171,775,186.7C812.3,203,849,213,886,186.7C923.1,160,960,96,997,64C1033.8,32,1071,32,1108,69.3C1144.6,107,1182,181,1218,181.3C1255.4,181,1292,107,1329,117.3C1366.2,128,1403,224,1422,272L1440,320L1440,320L1421.5,320C1403.1,320,1366,320,1329,320C1292.3,320,1255,320,1218,320C1181.5,320,1145,320,1108,320C1070.8,320,1034,320,997,320C960,320,923,320,886,320C849.2,320,812,320,775,320C738.5,320,702,320,665,320C627.7,320,591,320,554,320C516.9,320,480,320,443,320C406.2,320,369,320,332,320C295.4,320,258,320,222,320C184.6,320,148,320,111,320C73.8,320,37,320,18,320L0,320Z"></path></svg>